<svg xmlns="http://www.w3.org/2000/svg" xmlns:xlink="http://www.w3.org/1999/xlink" xmlns:lucid="lucid" width="1760" height="1360"><g transform="translate(0 0)" lucid:page-tab-id="0_0"><path d="M0 0h1760v1360H0z" fill="#fff"/><path d="M780 244.67h75.33v38.66H780z" fill="none"/><use xlink:href="#a" transform="matrix(1,0,0,1,780,244.66666666666666) translate(31.525 23.1)"/><path d="M1024.67 249.33h42.66v29.34h-42.66z" fill="none"/><use xlink:href="#b" transform="matrix(1,0,0,1,1024.6666666666665,249.33333333333334) translate(14.024999999999999 18.6)"/><path d="M672 453.5h58v48h-58z" fill="none"/><use xlink:href="#c" transform="matrix(1,0,0,1,672,453.5) translate(24 27.6)"/><path d="M440 160h102v33.33H440z" fill="none"/><use xlink:href="#d" transform="matrix(1,0,0,1,440,160) translate(9.049999999999997 20.6)"/><use xlink:href="#e" transform="matrix(1,0,0,1,440,160) translate(24.049999999999997 20.6)"/><path d="M580 180h200v264H580z" fill="#fff"/><path d="M580 180h200v264H580zM580 220h200" stroke="#000" stroke-width="2" fill="none"/><use xlink:href="#f" transform="matrix(1,0,0,1,590,180) translate(67.525 23.6)"/><use xlink:href="#g" transform="matrix(1,0,0,1,585,222.5) translate(0 17.1)"/><use xlink:href="#h" transform="matrix(1,0,0,1,585,254.5) translate(0 17.1)"/><use xlink:href="#i" transform="matrix(1,0,0,1,585,286.5) translate(0 17.1)"/><use xlink:href="#j" transform="matrix(1,0,0,1,585,318.5) translate(0 17.1)"/><use xlink:href="#k" transform="matrix(1,0,0,1,585,350.5) translate(0 17.1)"/><use xlink:href="#l" transform="matrix(1,0,0,1,585,382.5) translate(0 17.1)"/><use xlink:href="#m" transform="matrix(1,0,0,1,585,414.5) translate(0 17.1)"/><path d="M420 240l80 80-80 80-80-80z" stroke="#000" stroke-width="2" fill="#fff"/><use xlink:href="#n" transform="matrix(1,0,0,1,345,245) translate(39.525 78.60000000000001)"/><path d="M420 238.6V200h159" stroke="#000" stroke-width="2" fill="none"/><path d="M421 241l-1-1-1 1v-2.4h2zM580 201h-1v-2h1z"/><path d="M420 401.4V428h159" stroke="#000" stroke-width="2" fill="none"/><path d="M421 401.4h-2V399l1 1 1-1zM580 429h-1v-2h1z"/><path d="M460 400h102v33.33H460z" fill="none"/><use xlink:href="#o" transform="matrix(1,0,0,1,460,400) translate(1.0499999999999972 20.6)"/><use xlink:href="#p" transform="matrix(1,0,0,1,460,400) translate(19 20.6)"/><path d="M1100 170h200v200h-200z" fill="#fff"/><path d="M1100 170h200v200h-200zM1100 210h200" stroke="#000" stroke-width="2" fill="none"/><use xlink:href="#q" transform="matrix(1,0,0,1,1110,170) translate(43.55 23.6)"/><use xlink:href="#r" transform="matrix(1,0,0,1,1110,170) translate(98.5 23.6)"/><use xlink:href="#s" transform="matrix(1,0,0,1,1105,212.5) translate(0 17.1)"/><use xlink:href="#t" transform="matrix(1,0,0,1,1105,244.5) translate(0 17.1)"/><use xlink:href="#u" transform="matrix(1,0,0,1,1105,276.5) translate(0 17.1)"/><use xlink:href="#v" transform="matrix(1,0,0,1,1105,308.5) translate(0 17.1)"/><use xlink:href="#w" transform="matrix(1,0,0,1,1105,340.5) translate(0 17.1)"/><path d="M940 236l60 60.5-60 60.5-60-60.5z" stroke="#000" stroke-width="2" fill="#fff"/><path d="M940 243.56l52.5 52.94-52.5 52.94-52.5-52.94z" stroke="#000" stroke-width="2" fill="#fff"/><use xlink:href="#x" transform="matrix(1,0,0,1,892.5,248.5625) translate(2.5749999999999957 51.6)"/><use xlink:href="#y" transform="matrix(1,0,0,1,892.5,248.5625) translate(73.42500000000001 51.6)"/><path d="M886.1 296.5H781" stroke="#000" stroke-width="2" fill="none"/><path d="M887.5 296.5l1 1h-2.4v-2h2.4zM781 297.5h-1v-2h1z"/><path d="M993.9 294.5H1099m-105.1 4H1099" stroke="#000" stroke-width="2" fill="none"/><path d="M993.9 297.5h-2.4l1-1-1-1h2.4zM1100 297.5h-1v-2h1z"/><path d="M580 680h200v232H580z" fill="#fff"/><path d="M580 680h200v232H580zM580 720h200" stroke="#000" stroke-width="2" fill="none"/><use xlink:href="#z" transform="matrix(1,0,0,1,590,680) translate(53.525 23.6)"/><use xlink:href="#A" transform="matrix(1,0,0,1,585,722.5) translate(0 17.1)"/><use xlink:href="#B" transform="matrix(1,0,0,1,585,754.5) translate(0 17.1)"/><use xlink:href="#C" transform="matrix(1,0,0,1,585,786.5) translate(0 17.1)"/><use xlink:href="#D" transform="matrix(1,0,0,1,585,818.5) translate(0 17.1)"/><use xlink:href="#E" transform="matrix(1,0,0,1,585,850.5) translate(0 17.1)"/><use xlink:href="#F" transform="matrix(1,0,0,1,585,882.5) translate(0 17.1)"/><path d="M440 663.33h102v33.34H440z" fill="none"/><use xlink:href="#d" transform="matrix(1,0,0,1,440,663.3333333333334) translate(7.074999999999996 20.6)"/><use xlink:href="#G" transform="matrix(1,0,0,1,440,663.3333333333334) translate(22.074999999999996 20.6)"/><path d="M400 716.67l80 80-80 80-80-80z" stroke="#000" stroke-width="2" fill="#fff"/><use xlink:href="#H" transform="matrix(1,0,0,1,325,721.6666666666667) translate(52.05 78.60000000000001)"/><path d="M400 715.25v-16.2h179" stroke="#000" stroke-width="2" fill="none"/><path d="M401 717.67l-1-1-1 1v-2.42h2zM580 700.04h-1v-2h1z"/><path d="M400 878.08v23.33h179" stroke="#000" stroke-width="2" fill="none"/><path d="M401 878.08h-2v-2.4l1 1 1-1zM580 902.4h-1v-2h1z"/><path d="M440 900h102v33.33H440z" fill="none"/><use xlink:href="#o" transform="matrix(1,0,0,1,440,900.0000000000001) translate(10.599999999999994 20.6)"/><use xlink:href="#I" transform="matrix(1,0,0,1,440,900.0000000000001) translate(28.549999999999997 20.6)"/><path d="M680 511l50 51-50 51-50-51z" stroke="#000" stroke-width="2" fill="#fff"/><use xlink:href="#J" transform="matrix(1,0,0,1,635,516) translate(26.5 49.6)"/><path d="M680 509.57V445" stroke="#000" stroke-width="2" fill="none"/><path d="M681 512.02l-1-1.02-1 1.02v-2.45h2zM681 445h-2v-1h2z"/><path d="M678 679v-64.57m4 64.57v-64.57" stroke="#000" stroke-width="2" fill="none"/><path d="M681 680h-2v-1h2zM681 614.43h-2v-2.45l1 1.02 1-1.02z"/><path d="M680 613h58v48h-58z" fill="none"/><use xlink:href="#a" transform="matrix(1,0,0,1,680,613) translate(22.525 27.6)"/><path d="M1192 400h58v48h-58z" fill="none"/><use xlink:href="#c" transform="matrix(1,0,0,1,1192,400) translate(24 27.6)"/><path d="M1200 511l50 51-50 51-50-51z" stroke="#000" stroke-width="2" fill="#fff"/><use xlink:href="#K" transform="matrix(1,0,0,1,1155,516) translate(4.024999999999999 49.6)"/><path d="M1200 509.57V371" stroke="#000" stroke-width="2" fill="none"/><path d="M1201 512.02l-1-1.02-1 1.02v-2.45h2zM1201 371h-2v-1h2z"/><path d="M781 697.04h417v-82.6m-417 86.6h419l1.4-.6.6-1.4v-84.6" stroke="#000" stroke-width="2" fill="none"/><path d="M781 700.04h-1v-2h1zM1201 614.43h-2v-2.45l1 1.02 1-1.02z"/><path d="M967 663h58v48h-58z" fill="none"/><use xlink:href="#a" transform="matrix(1,0,0,1,967,663) translate(22.525 27.6)"/><path d="M662 920.5h58v48h-58z" fill="none"/><use xlink:href="#a" transform="matrix(1,0,0,1,662,920.5) translate(22.525 27.6)"/><path d="M670 978l50 51-50 51-50-51z" stroke="#000" stroke-width="2" fill="#fff"/><use xlink:href="#L" transform="matrix(1,0,0,1,625,983) translate(29.025 49.6)"/><path d="M670 976.57V912" stroke="#000" stroke-width="2" fill="none"/><path d="M671 979.02l-1-1.02-1 1.02v-2.45h2z"/><path d="M668 1139v-57.57m4 57.57v-57.57" stroke="#000" stroke-width="2" fill="none"/><path d="M671 1140h-2v-1h2zM671 1081.43h-2v-2.45l1 1.02 1-1.02z"/><path d="M670 1080h58v48h-58z" fill="none"/><use xlink:href="#b" transform="matrix(1,0,0,1,670,1080) translate(21.525 27.6)"/><path d="M570 1140h200v168H570z" fill="#fff"/><path d="M570 1140h200v168H570zM570 1180h200" stroke="#000" stroke-width="2" fill="none"/><g><use xlink:href="#M" transform="matrix(1,0,0,1,580,1140) translate(61.525 23.6)"/></g><g><use xlink:href="#N" transform="matrix(1,0,0,1,575,1182.5) translate(0 17.1)"/></g><g><use xlink:href="#O" transform="matrix(1,0,0,1,575,1214.5) translate(0 17.1)"/></g><g><use xlink:href="#P" transform="matrix(1,0,0,1,575,1246.5) translate(0 17.1)"/></g><g><use xlink:href="#Q" transform="matrix(1,0,0,1,575,1278.5) translate(0 17.1)"/></g><defs><path d="M190 0L58-211 59 0H30v-248h39L202-35l-2-213h31V0h-41" id="R"/><use transform="matrix(0.05,0,0,0.05,0,0)" xlink:href="#R" id="a"/><path d="M240 0l2-218c-23 76-54 145-80 218h-23L58-218 59 0H30v-248h44l77 211c21-75 51-140 76-211h43V0h-30" id="S"/><use transform="matrix(0.05,0,0,0.05,0,0)" xlink:href="#S" id="b"/><path d="M27 0v-27h64v-190l-56 39v-29l58-41h29v221h61V0H27" id="T"/><use transform="matrix(0.05,0,0,0.05,0,0)" xlink:href="#T" id="c"/><use transform="matrix(0.05,0,0,0.05,0,0)" xlink:href="#T" id="d"/><path d="M135-143c-3-34-86-38-87 0 15 53 115 12 119 90S17 21 10-45l28-5c4 36 97 45 98 0-10-56-113-15-118-90-4-57 82-63 122-42 12 7 21 19 24 35" id="U"/><path d="M84 4C-5 8 30-112 23-190h32v120c0 31 7 50 39 49 72-2 45-101 50-169h31l1 190h-30c-1-10 1-25-2-33-11 22-28 36-60 37" id="V"/><path d="M115-194c55 1 70 41 70 98S169 2 115 4C84 4 66-9 55-30l1 105H24l-1-265h31l2 30c10-21 28-34 59-34zm-8 174c40 0 45-34 45-75s-6-73-45-74c-42 0-51 32-51 76 0 43 10 73 51 73" id="W"/><path d="M100-194c63 0 86 42 84 106H49c0 40 14 67 53 68 26 1 43-12 49-29l28 8c-11 28-37 45-77 45C44 4 14-33 15-96c1-61 26-98 85-98zm52 81c6-60-76-77-97-28-3 7-6 17-6 28h103" id="X"/><path d="M114-163C36-179 61-72 57 0H25l-1-190h30c1 12-1 29 2 39 6-27 23-49 58-41v29" id="Y"/><path d="M-5 72V49h209v23H-5" id="Z"/><path d="M24-231v-30h32v30H24zM24 0v-190h32V0H24" id="aa"/><path d="M85-194c31 0 48 13 60 33l-1-100h32l1 261h-30c-2-10 0-23-3-31C134-8 116 4 85 4 32 4 16-35 15-94c0-66 23-100 70-100zm9 24c-40 0-46 34-46 75 0 40 6 74 45 74 42 0 51-32 51-76 0-42-9-74-50-73" id="ab"/><g id="e"><use transform="matrix(0.05,0,0,0.05,0,0)" xlink:href="#U"/><use transform="matrix(0.05,0,0,0.05,9,0)" xlink:href="#V"/><use transform="matrix(0.05,0,0,0.05,19,0)" xlink:href="#W"/><use transform="matrix(0.05,0,0,0.05,29,0)" xlink:href="#X"/><use transform="matrix(0.05,0,0,0.05,39,0)" xlink:href="#Y"/><use transform="matrix(0.05,0,0,0.05,44.95,0)" xlink:href="#Z"/><use transform="matrix(0.05,0,0,0.05,54.95,0)" xlink:href="#aa"/><use transform="matrix(0.05,0,0,0.05,58.900000000000006,0)" xlink:href="#ab"/></g><path d="M30 0v-248h187v28H63v79h144v27H63v87h162V0H30" id="ac"/><path d="M117-194c89-4 53 116 60 194h-32v-121c0-31-8-49-39-48C34-167 62-67 57 0H25l-1-190h30c1 10-1 24 2 32 11-22 29-35 61-36" id="ad"/><path d="M59-47c-2 24 18 29 38 22v24C64 9 27 4 27-40v-127H5v-23h24l9-43h21v43h35v23H59v120" id="ae"/><path d="M179-190L93 31C79 59 56 82 12 73V49c39 6 53-20 64-50L1-190h34L92-34l54-156h33" id="af"/><g id="f"><use transform="matrix(0.05,0,0,0.05,0,0)" xlink:href="#ac"/><use transform="matrix(0.05,0,0,0.05,12,0)" xlink:href="#ad"/><use transform="matrix(0.05,0,0,0.05,22,0)" xlink:href="#ae"/><use transform="matrix(0.05,0,0,0.05,27,0)" xlink:href="#aa"/><use transform="matrix(0.05,0,0,0.05,30.950000000000003,0)" xlink:href="#ae"/><use transform="matrix(0.05,0,0,0.05,35.95,0)" xlink:href="#af"/></g><g id="g"><use transform="matrix(0.05,0,0,0.05,0,0)" xlink:href="#V"/><use transform="matrix(0.05,0,0,0.05,10,0)" xlink:href="#U"/><use transform="matrix(0.05,0,0,0.05,19,0)" xlink:href="#X"/><use transform="matrix(0.05,0,0,0.05,29,0)" xlink:href="#Y"/><use transform="matrix(0.05,0,0,0.05,34.95,0)" xlink:href="#Z"/><use transform="matrix(0.05,0,0,0.05,44.95,0)" xlink:href="#aa"/><use transform="matrix(0.05,0,0,0.05,48.900000000000006,0)" xlink:href="#ab"/><path d="M-.9 1.25h60.7v1.32H-.9z"/></g><path d="M101-234c-31-9-42 10-38 44h38v23H63V0H32v-167H5v-23h27c-7-52 17-82 69-68v24" id="ag"/><path d="M141-36C126-15 110 5 73 4 37 3 15-17 15-53c-1-64 63-63 125-63 3-35-9-54-41-54-24 1-41 7-42 31l-33-3c5-37 33-52 76-52 45 0 72 20 72 64v82c-1 20 7 32 28 27v20c-31 9-61-2-59-35zM48-53c0 20 12 33 32 33 41-3 63-29 60-74-43 2-92-5-92 41" id="ah"/><path d="M210-169c-67 3-38 105-44 169h-31v-121c0-29-5-50-35-48C34-165 62-65 56 0H25l-1-190h30c1 10-1 24 2 32 10-44 99-50 107 0 11-21 27-35 58-36 85-2 47 119 55 194h-31v-121c0-29-5-49-35-48" id="ai"/><g id="h"><use transform="matrix(0.05,0,0,0.05,0,0)" xlink:href="#ag"/><use transform="matrix(0.05,0,0,0.05,5,0)" xlink:href="#aa"/><use transform="matrix(0.05,0,0,0.05,8.95,0)" xlink:href="#Y"/><use transform="matrix(0.05,0,0,0.05,14.899999999999999,0)" xlink:href="#U"/><use transform="matrix(0.05,0,0,0.05,23.9,0)" xlink:href="#ae"/><use transform="matrix(0.05,0,0,0.05,28.899999999999995,0)" xlink:href="#Z"/><use transform="matrix(0.05,0,0,0.05,38.9,0)" xlink:href="#ad"/><use transform="matrix(0.05,0,0,0.05,48.9,0)" xlink:href="#ah"/><use transform="matrix(0.05,0,0,0.05,58.900000000000006,0)" xlink:href="#ai"/><use transform="matrix(0.05,0,0,0.05,73.85,0)" xlink:href="#X"/></g><path d="M24 0v-261h32V0H24" id="aj"/><g id="i"><use transform="matrix(0.05,0,0,0.05,0,0)" xlink:href="#aj"/><use transform="matrix(0.05,0,0,0.05,3.95,0)" xlink:href="#ah"/><use transform="matrix(0.05,0,0,0.05,13.949999999999998,0)" xlink:href="#U"/><use transform="matrix(0.05,0,0,0.05,22.95,0)" xlink:href="#ae"/><use transform="matrix(0.05,0,0,0.05,27.950000000000003,0)" xlink:href="#Z"/><use transform="matrix(0.05,0,0,0.05,37.95,0)" xlink:href="#ad"/><use transform="matrix(0.05,0,0,0.05,47.95,0)" xlink:href="#ah"/><use transform="matrix(0.05,0,0,0.05,57.95,0)" xlink:href="#ai"/><use transform="matrix(0.05,0,0,0.05,72.9,0)" xlink:href="#X"/></g><path d="M39-94c74 12-11 154 75 146v23c-44 4-70-10-70-52C44-23 55-84 6-82v-22c81 4-7-162 84-157h24v23c-82-15-2 131-75 144" id="ak"/><path d="M106-169C34-169 62-67 57 0H25v-261h32l-1 103c12-21 28-36 61-36 89 0 53 116 60 194h-32v-121c2-32-8-49-39-48" id="al"/><path d="M100-194c62-1 85 37 85 99 1 63-27 99-86 99S16-35 15-95c0-66 28-99 85-99zM99-20c44 1 53-31 53-75 0-43-8-75-51-75s-53 32-53 75 10 74 51 75" id="am"/><path d="M76-40C78 24 84 88 6 75V52C86 64 9-79 80-94c-40-6-34-59-34-106 1-29-11-41-40-38v-23c44-4 70 10 70 52 0 47-12 108 38 105v22c-26 1-39 14-38 42" id="an"/><g id="j"><use transform="matrix(0.05,0,0,0.05,0,0)" xlink:href="#ak"/><use transform="matrix(0.05,0,0,0.05,6,0)" xlink:href="#W"/><use transform="matrix(0.05,0,0,0.05,16,0)" xlink:href="#al"/><use transform="matrix(0.05,0,0,0.05,26,0)" xlink:href="#am"/><use transform="matrix(0.05,0,0,0.05,36,0)" xlink:href="#ad"/><use transform="matrix(0.05,0,0,0.05,46,0)" xlink:href="#X"/><use transform="matrix(0.05,0,0,0.05,56,0)" xlink:href="#an"/></g><g id="k"><use transform="matrix(0.05,0,0,0.05,0,0)" xlink:href="#V"/><use transform="matrix(0.05,0,0,0.05,10,0)" xlink:href="#U"/><use transform="matrix(0.05,0,0,0.05,19,0)" xlink:href="#X"/><use transform="matrix(0.05,0,0,0.05,29,0)" xlink:href="#Y"/><use transform="matrix(0.05,0,0,0.05,34.95,0)" xlink:href="#Z"/><use transform="matrix(0.05,0,0,0.05,44.95,0)" xlink:href="#X"/><use transform="matrix(0.05,0,0,0.05,54.95,0)" xlink:href="#ai"/><use transform="matrix(0.05,0,0,0.05,69.9,0)" xlink:href="#ah"/><use transform="matrix(0.05,0,0,0.05,79.9,0)" xlink:href="#aa"/><use transform="matrix(0.05,0,0,0.05,83.85000000000001,0)" xlink:href="#aj"/></g><path d="M206 0h-36l-40-164L89 0H53L-1-190h32L70-26l43-164h34l41 164 42-164h31" id="ao"/><g id="l"><use transform="matrix(0.05,0,0,0.05,0,0)" xlink:href="#V"/><use transform="matrix(0.05,0,0,0.05,10,0)" xlink:href="#U"/><use transform="matrix(0.05,0,0,0.05,19,0)" xlink:href="#X"/><use transform="matrix(0.05,0,0,0.05,29,0)" xlink:href="#Y"/><use transform="matrix(0.05,0,0,0.05,34.95,0)" xlink:href="#Z"/><use transform="matrix(0.05,0,0,0.05,44.95,0)" xlink:href="#W"/><use transform="matrix(0.05,0,0,0.05,54.95,0)" xlink:href="#ah"/><use transform="matrix(0.05,0,0,0.05,64.95,0)" xlink:href="#U"/><use transform="matrix(0.05,0,0,0.05,73.95,0)" xlink:href="#U"/><use transform="matrix(0.05,0,0,0.05,82.95,0)" xlink:href="#ao"/><use transform="matrix(0.05,0,0,0.05,95.9,0)" xlink:href="#am"/><use transform="matrix(0.05,0,0,0.05,105.9,0)" xlink:href="#Y"/><use transform="matrix(0.05,0,0,0.05,111.85000000000001,0)" xlink:href="#ab"/></g><g id="m"><use transform="matrix(0.05,0,0,0.05,0,0)" xlink:href="#ab"/><use transform="matrix(0.05,0,0,0.05,10,0)" xlink:href="#ah"/><use transform="matrix(0.05,0,0,0.05,20,0)" xlink:href="#ae"/><use transform="matrix(0.05,0,0,0.05,25,0)" xlink:href="#X"/></g><path d="M212-179c-10-28-35-45-73-45-59 0-87 40-87 99 0 60 29 101 89 101 43 0 62-24 78-52l27 14C228-24 195 4 139 4 59 4 22-46 18-125c-6-104 99-153 187-111 19 9 31 26 39 46" id="ap"/><path d="M96-169c-40 0-48 33-48 73s9 75 48 75c24 0 41-14 43-38l32 2c-6 37-31 61-74 61-59 0-76-41-82-99-10-93 101-131 147-64 4 7 5 14 7 22l-32 3c-4-21-16-35-41-35" id="aq"/><g id="n"><use transform="matrix(0.05,0,0,0.05,0,0)" xlink:href="#ap"/><use transform="matrix(0.05,0,0,0.05,12.950000000000001,0)" xlink:href="#am"/><use transform="matrix(0.05,0,0,0.05,22.950000000000003,0)" xlink:href="#ad"/><use transform="matrix(0.05,0,0,0.05,32.95,0)" xlink:href="#ae"/><use transform="matrix(0.05,0,0,0.05,37.95,0)" xlink:href="#ah"/><use transform="matrix(0.05,0,0,0.05,47.95,0)" xlink:href="#aq"/><use transform="matrix(0.05,0,0,0.05,56.95,0)" xlink:href="#ae"/><use transform="matrix(0.05,0,0,0.05,61.95,0)" xlink:href="#U"/></g><use transform="matrix(0.05,0,0,0.05,0,0)" xlink:href="#R" id="o"/><g id="p"><use transform="matrix(0.05,0,0,0.05,0,0)" xlink:href="#aq"/><use transform="matrix(0.05,0,0,0.05,9,0)" xlink:href="#am"/><use transform="matrix(0.05,0,0,0.05,19,0)" xlink:href="#ad"/><use transform="matrix(0.05,0,0,0.05,29,0)" xlink:href="#ae"/><use transform="matrix(0.05,0,0,0.05,34,0)" xlink:href="#ah"/><use transform="matrix(0.05,0,0,0.05,44,0)" xlink:href="#aq"/><use transform="matrix(0.05,0,0,0.05,53,0)" xlink:href="#ae"/><use transform="matrix(0.05,0,0,0.05,58,0)" xlink:href="#Z"/><use transform="matrix(0.05,0,0,0.05,68,0)" xlink:href="#aa"/><use transform="matrix(0.05,0,0,0.05,71.95,0)" xlink:href="#ab"/></g><path d="M143 4C61 4 22-44 18-125c-5-107 100-154 193-111 17 8 29 25 37 43l-32 9c-13-25-37-40-76-40-61 0-88 39-88 99 0 61 29 100 91 101 35 0 62-11 79-27v-45h-74v-28h105v86C228-13 192 4 143 4" id="ar"/><g id="q"><use transform="matrix(0.05,0,0,0.05,0,0)" xlink:href="#ar"/><use transform="matrix(0.05,0,0,0.05,14,0)" xlink:href="#Y"/><use transform="matrix(0.05,0,0,0.05,19.95,0)" xlink:href="#am"/><use transform="matrix(0.05,0,0,0.05,29.950000000000003,0)" xlink:href="#V"/><use transform="matrix(0.05,0,0,0.05,39.95,0)" xlink:href="#W"/></g><g id="r"><use transform="matrix(0.05,0,0,0.05,0,0)" xlink:href="#ap"/><use transform="matrix(0.05,0,0,0.05,12.950000000000001,0)" xlink:href="#al"/><use transform="matrix(0.05,0,0,0.05,22.950000000000003,0)" xlink:href="#ah"/><use transform="matrix(0.05,0,0,0.05,32.95,0)" xlink:href="#ae"/></g><path d="M177-190C167-65 218 103 67 71c-23-6-38-20-44-43l32-5c15 47 100 32 89-28v-30C133-14 115 1 83 1 29 1 15-40 15-95c0-56 16-97 71-98 29-1 48 16 59 35 1-10 0-23 2-32h30zM94-22c36 0 50-32 50-73 0-42-14-75-50-75-39 0-46 34-46 75s6 73 46 73" id="as"/><g id="s"><use transform="matrix(0.05,0,0,0.05,0,0)" xlink:href="#as"/><use transform="matrix(0.05,0,0,0.05,10,0)" xlink:href="#Y"/><use transform="matrix(0.05,0,0,0.05,15.949999999999998,0)" xlink:href="#am"/><use transform="matrix(0.05,0,0,0.05,25.950000000000003,0)" xlink:href="#V"/><use transform="matrix(0.05,0,0,0.05,35.95,0)" xlink:href="#W"/><use transform="matrix(0.05,0,0,0.05,45.95,0)" xlink:href="#Z"/><use transform="matrix(0.05,0,0,0.05,55.95,0)" xlink:href="#aa"/><use transform="matrix(0.05,0,0,0.05,59.900000000000006,0)" xlink:href="#ab"/><path d="M-.9 1.25h71.7v1.32H-.9z"/></g><g id="t"><use transform="matrix(0.05,0,0,0.05,0,0)" xlink:href="#as"/><use transform="matrix(0.05,0,0,0.05,10,0)" xlink:href="#Y"/><use transform="matrix(0.05,0,0,0.05,15.949999999999998,0)" xlink:href="#am"/><use transform="matrix(0.05,0,0,0.05,25.950000000000003,0)" xlink:href="#V"/><use transform="matrix(0.05,0,0,0.05,35.95,0)" xlink:href="#W"/><use transform="matrix(0.05,0,0,0.05,45.95,0)" xlink:href="#Z"/><use transform="matrix(0.05,0,0,0.05,55.95,0)" xlink:href="#ad"/><use transform="matrix(0.05,0,0,0.05,65.95,0)" xlink:href="#ah"/><use transform="matrix(0.05,0,0,0.05,75.95,0)" xlink:href="#ai"/><use transform="matrix(0.05,0,0,0.05,90.9,0)" xlink:href="#X"/></g><path d="M115-194c53 0 69 39 70 98 0 66-23 100-70 100C84 3 66-7 56-30L54 0H23l1-261h32v101c10-23 28-34 59-34zm-8 174c40 0 45-34 45-75 0-40-5-75-45-74-42 0-51 32-51 76 0 43 10 73 51 73" id="at"/><g id="u"><use transform="matrix(0.05,0,0,0.05,0,0)" xlink:href="#as"/><use transform="matrix(0.05,0,0,0.05,10,0)" xlink:href="#ad"/><use transform="matrix(0.05,0,0,0.05,20,0)" xlink:href="#V"/><use transform="matrix(0.05,0,0,0.05,30,0)" xlink:href="#ai"/><use transform="matrix(0.05,0,0,0.05,44.95,0)" xlink:href="#at"/><use transform="matrix(0.05,0,0,0.05,54.95,0)" xlink:href="#X"/><use transform="matrix(0.05,0,0,0.05,64.95,0)" xlink:href="#Y"/><use transform="matrix(0.05,0,0,0.05,70.9,0)" xlink:href="#Z"/><use transform="matrix(0.05,0,0,0.05,80.9,0)" xlink:href="#am"/><use transform="matrix(0.05,0,0,0.05,90.9,0)" xlink:href="#ag"/><use transform="matrix(0.05,0,0,0.05,95.9,0)" xlink:href="#Z"/><use transform="matrix(0.05,0,0,0.05,105.9,0)" xlink:href="#V"/><use transform="matrix(0.05,0,0,0.05,115.9,0)" xlink:href="#U"/><use transform="matrix(0.05,0,0,0.05,124.9,0)" xlink:href="#X"/><use transform="matrix(0.05,0,0,0.05,134.9,0)" xlink:href="#Y"/><use transform="matrix(0.05,0,0,0.05,140.85,0)" xlink:href="#U"/></g><path d="M108 0H70L1-190h34L89-25l56-165h34" id="au"/><g id="v"><use transform="matrix(0.05,0,0,0.05,0,0)" xlink:href="#as"/><use transform="matrix(0.05,0,0,0.05,10,0)" xlink:href="#ah"/><use transform="matrix(0.05,0,0,0.05,20,0)" xlink:href="#aq"/><use transform="matrix(0.05,0,0,0.05,29,0)" xlink:href="#ae"/><use transform="matrix(0.05,0,0,0.05,34,0)" xlink:href="#aa"/><use transform="matrix(0.05,0,0,0.05,37.95,0)" xlink:href="#au"/><use transform="matrix(0.05,0,0,0.05,46.95,0)" xlink:href="#X"/><use transform="matrix(0.05,0,0,0.05,56.95,0)" xlink:href="#Z"/><use transform="matrix(0.05,0,0,0.05,66.95,0)" xlink:href="#V"/><use transform="matrix(0.05,0,0,0.05,76.95,0)" xlink:href="#U"/><use transform="matrix(0.05,0,0,0.05,85.95,0)" xlink:href="#X"/><use transform="matrix(0.05,0,0,0.05,95.95,0)" xlink:href="#Y"/><use transform="matrix(0.05,0,0,0.05,101.9,0)" xlink:href="#U"/></g><g id="w"><use transform="matrix(0.05,0,0,0.05,0,0)" xlink:href="#as"/><use transform="matrix(0.05,0,0,0.05,10,0)" xlink:href="#Y"/><use transform="matrix(0.05,0,0,0.05,15.949999999999998,0)" xlink:href="#am"/><use transform="matrix(0.05,0,0,0.05,25.950000000000003,0)" xlink:href="#V"/><use transform="matrix(0.05,0,0,0.05,35.95,0)" xlink:href="#W"/><use transform="matrix(0.05,0,0,0.05,45.95,0)" xlink:href="#Z"/><use transform="matrix(0.05,0,0,0.05,55.95,0)" xlink:href="#ab"/><use transform="matrix(0.05,0,0,0.05,65.95,0)" xlink:href="#ah"/><use transform="matrix(0.05,0,0,0.05,75.95,0)" xlink:href="#ae"/><use transform="matrix(0.05,0,0,0.05,80.95,0)" xlink:href="#X"/></g><g id="x"><use transform="matrix(0.05,0,0,0.05,0,0)" xlink:href="#S"/><use transform="matrix(0.05,0,0,0.05,14.950000000000001,0)" xlink:href="#X"/><use transform="matrix(0.05,0,0,0.05,24.950000000000003,0)" xlink:href="#ai"/><use transform="matrix(0.05,0,0,0.05,39.900000000000006,0)" xlink:href="#at"/><use transform="matrix(0.05,0,0,0.05,49.900000000000006,0)" xlink:href="#X"/><use transform="matrix(0.05,0,0,0.05,59.900000000000006,0)" xlink:href="#Y"/></g><path d="M140-251c81 0 123 46 123 126C263-46 219 4 140 4 59 4 17-45 17-125s42-126 123-126zm0 227c63 0 89-41 89-101s-29-99-89-99c-61 0-89 39-89 99S79-25 140-24" id="av"/><g id="y"><use transform="matrix(0.05,0,0,0.05,0,0)" xlink:href="#av"/><use transform="matrix(0.05,0,0,0.05,14,0)" xlink:href="#ag"/></g><g id="z"><use transform="matrix(0.05,0,0,0.05,0,0)" xlink:href="#S"/><use transform="matrix(0.05,0,0,0.05,14.950000000000001,0)" xlink:href="#X"/><use transform="matrix(0.05,0,0,0.05,24.950000000000003,0)" xlink:href="#U"/><use transform="matrix(0.05,0,0,0.05,33.95,0)" xlink:href="#U"/><use transform="matrix(0.05,0,0,0.05,42.95,0)" xlink:href="#ah"/><use transform="matrix(0.05,0,0,0.05,52.95,0)" xlink:href="#as"/><use transform="matrix(0.05,0,0,0.05,62.95,0)" xlink:href="#X"/></g><g id="A"><use transform="matrix(0.05,0,0,0.05,0,0)" xlink:href="#ai"/><use transform="matrix(0.05,0,0,0.05,14.950000000000001,0)" xlink:href="#X"/><use transform="matrix(0.05,0,0,0.05,24.950000000000003,0)" xlink:href="#U"/><use transform="matrix(0.05,0,0,0.05,33.95,0)" xlink:href="#U"/><use transform="matrix(0.05,0,0,0.05,42.95,0)" xlink:href="#ah"/><use transform="matrix(0.05,0,0,0.05,52.95,0)" xlink:href="#as"/><use transform="matrix(0.05,0,0,0.05,62.95,0)" xlink:href="#X"/><use transform="matrix(0.05,0,0,0.05,72.95,0)" xlink:href="#Z"/><use transform="matrix(0.05,0,0,0.05,82.95,0)" xlink:href="#aa"/><use transform="matrix(0.05,0,0,0.05,86.9,0)" xlink:href="#ab"/><path d="M-.9 1.25h98.7v1.32H-.9z"/></g><path d="M141 0L90-78 38 0H4l68-98-65-92h35l48 74 47-74h35l-64 92 68 98h-35" id="aw"/><g id="B"><use transform="matrix(0.05,0,0,0.05,0,0)" xlink:href="#ae"/><use transform="matrix(0.05,0,0,0.05,5,0)" xlink:href="#X"/><use transform="matrix(0.05,0,0,0.05,15,0)" xlink:href="#aw"/><use transform="matrix(0.05,0,0,0.05,24,0)" xlink:href="#ae"/><use transform="matrix(0.05,0,0,0.05,29,0)" xlink:href="#Z"/><use transform="matrix(0.05,0,0,0.05,39,0)" xlink:href="#ag"/><use transform="matrix(0.05,0,0,0.05,44,0)" xlink:href="#aa"/><use transform="matrix(0.05,0,0,0.05,47.95,0)" xlink:href="#X"/><use transform="matrix(0.05,0,0,0.05,57.95,0)" xlink:href="#aj"/><use transform="matrix(0.05,0,0,0.05,61.900000000000006,0)" xlink:href="#ab"/></g><path d="M143 0L79-87 56-68V0H24v-261h32v163l83-92h37l-77 82L181 0h-38" id="ax"/><g id="C"><use transform="matrix(0.05,0,0,0.05,0,0)" xlink:href="#ad"/><use transform="matrix(0.05,0,0,0.05,10,0)" xlink:href="#V"/><use transform="matrix(0.05,0,0,0.05,20,0)" xlink:href="#ai"/><use transform="matrix(0.05,0,0,0.05,34.95,0)" xlink:href="#at"/><use transform="matrix(0.05,0,0,0.05,44.95,0)" xlink:href="#X"/><use transform="matrix(0.05,0,0,0.05,54.95,0)" xlink:href="#Y"/><use transform="matrix(0.05,0,0,0.05,60.900000000000006,0)" xlink:href="#Z"/><use transform="matrix(0.05,0,0,0.05,70.9,0)" xlink:href="#am"/><use transform="matrix(0.05,0,0,0.05,80.9,0)" xlink:href="#ag"/><use transform="matrix(0.05,0,0,0.05,85.9,0)" xlink:href="#Z"/><use transform="matrix(0.05,0,0,0.05,95.9,0)" xlink:href="#aj"/><use transform="matrix(0.05,0,0,0.05,99.85000000000001,0)" xlink:href="#aa"/><use transform="matrix(0.05,0,0,0.05,103.80000000000001,0)" xlink:href="#ax"/><use transform="matrix(0.05,0,0,0.05,112.80000000000001,0)" xlink:href="#X"/><use transform="matrix(0.05,0,0,0.05,122.80000000000001,0)" xlink:href="#U"/></g><g id="D"><use transform="matrix(0.05,0,0,0.05,0,0)" xlink:href="#ad"/><use transform="matrix(0.05,0,0,0.05,10,0)" xlink:href="#V"/><use transform="matrix(0.05,0,0,0.05,20,0)" xlink:href="#ai"/><use transform="matrix(0.05,0,0,0.05,34.95,0)" xlink:href="#at"/><use transform="matrix(0.05,0,0,0.05,44.95,0)" xlink:href="#X"/><use transform="matrix(0.05,0,0,0.05,54.95,0)" xlink:href="#Y"/><use transform="matrix(0.05,0,0,0.05,60.900000000000006,0)" xlink:href="#Z"/><use transform="matrix(0.05,0,0,0.05,70.9,0)" xlink:href="#am"/><use transform="matrix(0.05,0,0,0.05,80.9,0)" xlink:href="#ag"/><use transform="matrix(0.05,0,0,0.05,85.9,0)" xlink:href="#Z"/><use transform="matrix(0.05,0,0,0.05,95.9,0)" xlink:href="#ab"/><use transform="matrix(0.05,0,0,0.05,105.9,0)" xlink:href="#aa"/><use transform="matrix(0.05,0,0,0.05,109.85000000000001,0)" xlink:href="#U"/><use transform="matrix(0.05,0,0,0.05,118.85000000000001,0)" xlink:href="#aj"/><use transform="matrix(0.05,0,0,0.05,122.80000000000001,0)" xlink:href="#aa"/><use transform="matrix(0.05,0,0,0.05,126.75,0)" xlink:href="#ax"/><use transform="matrix(0.05,0,0,0.05,135.75,0)" xlink:href="#X"/><use transform="matrix(0.05,0,0,0.05,145.75,0)" xlink:href="#U"/></g><g id="E"><use transform="matrix(0.05,0,0,0.05,0,0)" xlink:href="#ad"/><use transform="matrix(0.05,0,0,0.05,10,0)" xlink:href="#V"/><use transform="matrix(0.05,0,0,0.05,20,0)" xlink:href="#ai"/><use transform="matrix(0.05,0,0,0.05,34.95,0)" xlink:href="#at"/><use transform="matrix(0.05,0,0,0.05,44.95,0)" xlink:href="#X"/><use transform="matrix(0.05,0,0,0.05,54.95,0)" xlink:href="#Y"/><use transform="matrix(0.05,0,0,0.05,60.900000000000006,0)" xlink:href="#Z"/><use transform="matrix(0.05,0,0,0.05,70.9,0)" xlink:href="#am"/><use transform="matrix(0.05,0,0,0.05,80.9,0)" xlink:href="#ag"/><use transform="matrix(0.05,0,0,0.05,85.9,0)" xlink:href="#Z"/><use transform="matrix(0.05,0,0,0.05,95.9,0)" xlink:href="#Y"/><use transform="matrix(0.05,0,0,0.05,101.85000000000001,0)" xlink:href="#X"/><use transform="matrix(0.05,0,0,0.05,111.85000000000001,0)" xlink:href="#W"/><use transform="matrix(0.05,0,0,0.05,121.85000000000001,0)" xlink:href="#aj"/><use transform="matrix(0.05,0,0,0.05,125.80000000000001,0)" xlink:href="#aa"/><use transform="matrix(0.05,0,0,0.05,129.75,0)" xlink:href="#X"/><use transform="matrix(0.05,0,0,0.05,139.75,0)" xlink:href="#U"/></g><g id="F"><use transform="matrix(0.05,0,0,0.05,0,0)" xlink:href="#ai"/><use transform="matrix(0.05,0,0,0.05,14.950000000000001,0)" xlink:href="#X"/><use transform="matrix(0.05,0,0,0.05,24.950000000000003,0)" xlink:href="#U"/><use transform="matrix(0.05,0,0,0.05,33.95,0)" xlink:href="#U"/><use transform="matrix(0.05,0,0,0.05,42.95,0)" xlink:href="#ah"/><use transform="matrix(0.05,0,0,0.05,52.95,0)" xlink:href="#as"/><use transform="matrix(0.05,0,0,0.05,62.95,0)" xlink:href="#X"/><use transform="matrix(0.05,0,0,0.05,72.95,0)" xlink:href="#Z"/><use transform="matrix(0.05,0,0,0.05,82.95,0)" xlink:href="#ab"/><use transform="matrix(0.05,0,0,0.05,92.95,0)" xlink:href="#ah"/><use transform="matrix(0.05,0,0,0.05,102.95,0)" xlink:href="#ae"/><use transform="matrix(0.05,0,0,0.05,107.95,0)" xlink:href="#X"/></g><g id="G"><use transform="matrix(0.05,0,0,0.05,0,0)" xlink:href="#am"/><use transform="matrix(0.05,0,0,0.05,10,0)" xlink:href="#ao"/><use transform="matrix(0.05,0,0,0.05,22.950000000000003,0)" xlink:href="#ad"/><use transform="matrix(0.05,0,0,0.05,32.95,0)" xlink:href="#X"/><use transform="matrix(0.05,0,0,0.05,42.95,0)" xlink:href="#Y"/><use transform="matrix(0.05,0,0,0.05,48.900000000000006,0)" xlink:href="#Z"/><use transform="matrix(0.05,0,0,0.05,58.900000000000006,0)" xlink:href="#aa"/><use transform="matrix(0.05,0,0,0.05,62.85,0)" xlink:href="#ab"/></g><path d="M233-177c-1 41-23 64-60 70L243 0h-38l-65-103H63V0H30v-248c88 3 205-21 203 71zM63-129c60-2 137 13 137-47 0-61-80-42-137-45v92" id="ay"/><g id="H"><use transform="matrix(0.05,0,0,0.05,0,0)" xlink:href="#ay"/><use transform="matrix(0.05,0,0,0.05,12.950000000000001,0)" xlink:href="#X"/><use transform="matrix(0.05,0,0,0.05,22.950000000000003,0)" xlink:href="#W"/><use transform="matrix(0.05,0,0,0.05,32.95,0)" xlink:href="#aj"/><use transform="matrix(0.05,0,0,0.05,36.900000000000006,0)" xlink:href="#af"/></g><g id="I"><use transform="matrix(0.05,0,0,0.05,0,0)" xlink:href="#Y"/><use transform="matrix(0.05,0,0,0.05,5.95,0)" xlink:href="#X"/><use transform="matrix(0.05,0,0,0.05,15.949999999999998,0)" xlink:href="#W"/><use transform="matrix(0.05,0,0,0.05,25.950000000000003,0)" xlink:href="#aj"/><use transform="matrix(0.05,0,0,0.05,29.899999999999995,0)" xlink:href="#af"/><use transform="matrix(0.05,0,0,0.05,38.9,0)" xlink:href="#Z"/><use transform="matrix(0.05,0,0,0.05,48.9,0)" xlink:href="#aa"/><use transform="matrix(0.05,0,0,0.05,52.85,0)" xlink:href="#ab"/></g><path d="M185-189c-5-48-123-54-124 2 14 75 158 14 163 119 3 78-121 87-175 55-17-10-28-26-33-46l33-7c5 56 141 63 141-1 0-78-155-14-162-118-5-82 145-84 179-34 5 7 8 16 11 25" id="az"/><g id="J"><use transform="matrix(0.05,0,0,0.05,0,0)" xlink:href="#az"/><use transform="matrix(0.05,0,0,0.05,12,0)" xlink:href="#X"/><use transform="matrix(0.05,0,0,0.05,22,0)" xlink:href="#ad"/><use transform="matrix(0.05,0,0,0.05,32,0)" xlink:href="#ae"/></g><g id="K"><use transform="matrix(0.05,0,0,0.05,0,0)" xlink:href="#S"/><use transform="matrix(0.05,0,0,0.05,14.950000000000001,0)" xlink:href="#X"/><use transform="matrix(0.05,0,0,0.05,24.950000000000003,0)" xlink:href="#U"/><use transform="matrix(0.05,0,0,0.05,33.95,0)" xlink:href="#U"/><use transform="matrix(0.05,0,0,0.05,42.95,0)" xlink:href="#ah"/><use transform="matrix(0.05,0,0,0.05,52.95,0)" xlink:href="#as"/><use transform="matrix(0.05,0,0,0.05,62.95,0)" xlink:href="#X"/><use transform="matrix(0.05,0,0,0.05,72.95,0)" xlink:href="#U"/></g><path d="M197 0v-115H63V0H30v-248h33v105h134v-105h34V0h-34" id="aA"/><g id="L"><use transform="matrix(0.05,0,0,0.05,0,0)" xlink:href="#aA"/><use transform="matrix(0.05,0,0,0.05,12.950000000000001,0)" xlink:href="#ah"/><use transform="matrix(0.05,0,0,0.05,22.950000000000003,0)" xlink:href="#U"/></g><g id="M"><use transform="matrix(0.05,0,0,0.05,0,0)" xlink:href="#aA"/><use transform="matrix(0.05,0,0,0.05,12.950000000000001,0)" xlink:href="#ah"/><use transform="matrix(0.05,0,0,0.05,22.950000000000003,0)" xlink:href="#U"/><use transform="matrix(0.05,0,0,0.05,31.950000000000003,0)" xlink:href="#ae"/><use transform="matrix(0.05,0,0,0.05,36.95,0)" xlink:href="#ah"/><use transform="matrix(0.05,0,0,0.05,46.95,0)" xlink:href="#as"/></g><g id="N"><use transform="matrix(0.05,0,0,0.05,0,0)" xlink:href="#al"/><use transform="matrix(0.05,0,0,0.05,10,0)" xlink:href="#ah"/><use transform="matrix(0.05,0,0,0.05,20,0)" xlink:href="#U"/><use transform="matrix(0.05,0,0,0.05,29,0)" xlink:href="#al"/><use transform="matrix(0.05,0,0,0.05,39,0)" xlink:href="#ae"/><use transform="matrix(0.05,0,0,0.05,44,0)" xlink:href="#ah"/><use transform="matrix(0.05,0,0,0.05,54,0)" xlink:href="#as"/><use transform="matrix(0.05,0,0,0.05,64,0)" xlink:href="#Z"/><use transform="matrix(0.05,0,0,0.05,74,0)" xlink:href="#aa"/><use transform="matrix(0.05,0,0,0.05,77.95,0)" xlink:href="#ab"/></g><g id="O"><use transform="matrix(0.05,0,0,0.05,0,0)" xlink:href="#al"/><use transform="matrix(0.05,0,0,0.05,10,0)" xlink:href="#ah"/><use transform="matrix(0.05,0,0,0.05,20,0)" xlink:href="#U"/><use transform="matrix(0.05,0,0,0.05,29,0)" xlink:href="#ae"/><use transform="matrix(0.05,0,0,0.05,34,0)" xlink:href="#ah"/><use transform="matrix(0.05,0,0,0.05,44,0)" xlink:href="#as"/><use transform="matrix(0.05,0,0,0.05,54,0)" xlink:href="#Z"/><use transform="matrix(0.05,0,0,0.05,64,0)" xlink:href="#ae"/><use transform="matrix(0.05,0,0,0.05,69,0)" xlink:href="#X"/><use transform="matrix(0.05,0,0,0.05,79,0)" xlink:href="#aw"/><use transform="matrix(0.05,0,0,0.05,88,0)" xlink:href="#ae"/></g><g id="P"><use transform="matrix(0.05,0,0,0.05,0,0)" xlink:href="#ad"/><use transform="matrix(0.05,0,0,0.05,10,0)" xlink:href="#V"/><use transform="matrix(0.05,0,0,0.05,20,0)" xlink:href="#ai"/><use transform="matrix(0.05,0,0,0.05,34.95,0)" xlink:href="#at"/><use transform="matrix(0.05,0,0,0.05,44.95,0)" xlink:href="#X"/><use transform="matrix(0.05,0,0,0.05,54.95,0)" xlink:href="#Y"/><use transform="matrix(0.05,0,0,0.05,60.900000000000006,0)" xlink:href="#Z"/><use transform="matrix(0.05,0,0,0.05,70.9,0)" xlink:href="#am"/><use transform="matrix(0.05,0,0,0.05,80.9,0)" xlink:href="#ag"/><use transform="matrix(0.05,0,0,0.05,85.9,0)" xlink:href="#Z"/><use transform="matrix(0.05,0,0,0.05,95.9,0)" xlink:href="#V"/><use transform="matrix(0.05,0,0,0.05,105.9,0)" xlink:href="#U"/><use transform="matrix(0.05,0,0,0.05,114.9,0)" xlink:href="#X"/><use transform="matrix(0.05,0,0,0.05,124.9,0)" xlink:href="#U"/></g><g id="Q"><use transform="matrix(0.05,0,0,0.05,0,0)" xlink:href="#al"/><use transform="matrix(0.05,0,0,0.05,10,0)" xlink:href="#ah"/><use transform="matrix(0.05,0,0,0.05,20,0)" xlink:href="#U"/><use transform="matrix(0.05,0,0,0.05,29,0)" xlink:href="#ae"/><use transform="matrix(0.05,0,0,0.05,34,0)" xlink:href="#ah"/><use transform="matrix(0.05,0,0,0.05,44,0)" xlink:href="#as"/><use transform="matrix(0.05,0,0,0.05,54,0)" xlink:href="#Z"/><use transform="matrix(0.05,0,0,0.05,64,0)" xlink:href="#ab"/><use transform="matrix(0.05,0,0,0.05,74,0)" xlink:href="#ah"/><use transform="matrix(0.05,0,0,0.05,84,0)" xlink:href="#ae"/><use transform="matrix(0.05,0,0,0.05,89,0)" xlink:href="#X"/></g></defs></g></svg>